<svg width="20" height="24" viewBox="0 0 20 24" fill="none" xmlns="http://www.w3.org/2000/svg">
<path d="M10 12C13.3137 12 16 9.31371 16 6C16 2.68629 13.3137 0 10 0C6.68629 0 4 2.68629 4 6C4 9.31371 6.68629 12 10 12Z" fill="black"/>
<path d="M13 13.93H7C5.14348 13.93 3.36301 14.6675 2.05025 15.9802C0.737498 17.293 0 19.0735 0 20.93C0 21.7256 0.316071 22.4887 0.87868 23.0513C1.44129 23.6139 2.20435 23.93 3 23.93H17C17.7956 23.93 18.5587 23.6139 19.1213 23.0513C19.6839 22.4887 20 21.7256 20 20.93C20 19.0735 19.2625 17.293 17.9497 15.9802C16.637 14.6675 14.8565 13.93 13 13.93Z" fill="black"/>
</svg>
