<svg width="16" height="8" viewBox="0 0 16 8" fill="none" xmlns="http://www.w3.org/2000/svg">
<path d="M8.00009 7.30749C7.0102 7.31926 6.05581 6.93912 5.34509 6.25L1.10759 1.9675C0.984719 1.82402 0.920515 1.63946 0.927805 1.45071C0.935096 1.26195 1.01335 1.08289 1.14692 0.949323C1.28049 0.815752 1.45954 0.737503 1.6483 0.730212C1.83706 0.722921 2.02161 0.787126 2.16509 0.909996L6.41009 5.155C6.8393 5.56225 7.40842 5.78929 8.00009 5.78929C8.59176 5.78929 9.16088 5.56225 9.59009 5.155L13.8351 0.909996C13.9786 0.787126 14.1631 0.722921 14.3519 0.730212C14.5406 0.737503 14.7197 0.815752 14.8533 0.949323C14.9868 1.08289 15.0651 1.26195 15.0724 1.45071C15.0797 1.63946 15.0155 1.82402 14.8926 1.9675L10.6551 6.25C9.94437 6.93912 8.98998 7.31926 8.00009 7.30749V7.30749Z" fill="black"/>
</svg>
