<svg width="32" height="32" viewBox="0 0 32 32" fill="none" xmlns="http://www.w3.org/2000/svg">
<path fill-rule="evenodd" clip-rule="evenodd" d="M15.952 24.674C21.0047 20.3427 28.102 16.1327 32 14.6167C31.3987 14.2313 30.46 13.678 29.4014 13.0767C24.3727 14.7367 18.502 18.418 13.2567 22.5807C14.1474 23.254 15.0854 23.952 15.952 24.674Z" fill="#E31837"/>
<path fill-rule="evenodd" clip-rule="evenodd" d="M13.642 12.9088C12.896 12.5475 12.078 12.2108 11.4527 11.9221C9.55205 12.8601 7.07338 14.2801 3.94604 16.5175C4.62004 16.8788 5.34138 17.3115 6.11138 17.7448C8.51738 15.9641 10.9474 14.2801 13.642 12.9088Z" fill="#012169"/>
<path fill-rule="evenodd" clip-rule="evenodd" d="M18.1413 10.8392C17.2267 10.3339 14.0513 9.15457 11.8613 8.6499C11.212 8.89057 10.2973 9.25124 9.672 9.5159C10.466 9.73257 13.4253 10.5266 15.952 11.8019C16.6013 11.4886 17.516 11.1039 18.1413 10.8392Z" fill="#E31837"/>
<path fill-rule="evenodd" clip-rule="evenodd" d="M7.386 10.5266C4.57133 11.8259 1.612 13.6059 0 14.6406C0.577333 14.9053 1.15467 15.1219 1.94867 15.5066C5.50933 13.1006 8.30067 11.6326 9.40733 11.1519C8.61333 10.8626 7.86733 10.6706 7.386 10.5266Z" fill="#012169"/>
<path fill-rule="evenodd" clip-rule="evenodd" d="M20.2587 10.0935C20.9081 9.87684 21.6547 9.68417 22.3041 9.49151C20.4274 8.69751 18.0694 7.85551 15.9521 7.32617C15.6154 7.42217 14.6047 7.6875 13.9067 7.9035C14.6287 8.12084 17.0101 8.67417 20.2587 10.0935ZM8.39673 19.1402C9.16673 19.5975 9.98473 20.2228 10.7787 20.7522C16.0481 16.6622 21.2447 13.5102 26.9474 11.7295C26.1534 11.3208 25.4554 10.9602 24.5654 10.5268C21.1487 11.3928 15.3021 13.7262 8.39673 19.1402Z" fill="#E31837"/>
</svg>
