<svg width="32" height="21" viewBox="0 0 32 21" fill="none" xmlns="http://www.w3.org/2000/svg">
<g clip-path="url(#clip0_1054_5581)">
<path d="M9.84087 16.4589L9.78283 16.5145C8.87129 17.4338 7.81645 17.9195 6.72987 17.9195C4.46056 17.9195 2.81435 16.2344 2.81435 13.9102C2.81435 11.5895 4.46056 9.9018 6.72987 9.9018C7.81645 9.9018 8.87129 10.3902 9.78283 11.313L9.84087 11.3678L11.3002 9.62081L11.2612 9.57413C10.0477 8.15481 8.59103 7.46445 6.80061 7.46445C5.00566 7.46445 3.36218 8.06324 2.17946 9.14142C0.891518 10.3103 0.213989 11.9585 0.213989 13.9102C0.213989 15.8619 0.891518 17.5137 2.17946 18.6826C3.36218 19.767 5.00566 20.3613 6.80061 20.3613C8.59103 20.3613 10.0477 19.6701 11.2612 18.2499L11.3002 18.2068L9.84087 16.4589Z" fill="#004685"/>
<path d="M12.7736 20.123H15.3512V7.66606H12.7736V20.123Z" fill="#004685"/>
<path d="M25.4503 17.4151C24.7619 17.8299 24.1224 18.039 23.5474 18.039C22.7138 18.039 22.3365 17.6027 22.3365 16.6332V10.0231H24.9641V7.67826H22.3365V3.80184L19.8105 5.14126V7.67826H17.6301V10.0231H19.8105V17.0542C19.8105 18.9691 20.957 20.2798 22.6694 20.3139C23.8313 20.3363 24.5315 19.9934 24.9559 19.742L24.9832 19.725L25.6026 17.3226L25.4503 17.4151Z" fill="#004685"/>
<path d="M27.584 20.123H30.1653V7.66606H27.584V20.123Z" fill="#004685"/>
<path d="M31.6688 5.48243C29.3134 2.18055 25.4024 0.21092 21.4234 0.21092C17.4453 0.21092 13.5334 2.18055 11.1825 5.48243L11.0609 5.6521H14.0268L14.0594 5.61709C16.0775 3.55409 18.7133 2.46424 21.4234 2.46424C24.1335 2.46424 26.7674 3.55409 28.79 5.61709L28.8227 5.6521H31.7867L31.6688 5.48243Z" fill="#EE1C25"/>
</g>
<defs>
<clipPath id="clip0_1054_5581">
<rect width="32" height="20.5726" fill="white"/>
</clipPath>
</defs>
</svg>
