<svg width="113" height="32" viewBox="0 0 113 32" fill="none" xmlns="http://www.w3.org/2000/svg">
<g clip-path="url(#clip0_1054_5583)">
<path d="M0.132572 21.9897C0.132572 20.4003 0.104134 19.0696 0.0162354 17.8791H3.09397L3.24004 19.9218H3.32535C4.02207 18.8436 5.29918 17.566 7.68019 17.566C9.53898 17.566 10.9893 18.5886 11.5994 20.1187H11.6589C12.1527 19.3537 12.7318 18.7856 13.3988 18.3904C14.1834 17.8501 15.0856 17.566 16.2451 17.566C18.5977 17.566 20.9761 19.1252 20.9761 23.5514V31.6868H17.4925V24.0589C17.4925 21.7638 16.6794 20.4003 14.9667 20.4003C13.7478 20.4003 12.8468 21.2537 12.4707 22.246C12.366 22.6247 12.3074 23.0141 12.2961 23.4062V31.6881H8.81253V23.689C8.81253 21.765 8.0292 20.4015 6.37335 20.4015C5.04066 20.4015 4.14099 21.4241 3.81784 22.3862C3.67436 22.727 3.6149 23.126 3.6149 23.5199V31.6881H0.132572V21.9897ZM34.5499 28.3716C34.5499 29.6176 34.6081 30.8359 34.7516 31.6881H31.5291L31.2977 30.158H31.2098C30.3386 31.2361 28.8572 31.9986 27.032 31.9986C24.1857 31.9986 22.5893 29.9875 22.5893 27.888C22.5893 24.3973 25.7511 22.6424 30.9797 22.6702V22.4442C30.9797 21.5352 30.601 20.0329 28.1036 20.0329C26.7089 20.0329 25.2586 20.4596 24.3007 21.053L23.604 18.7843C24.6497 18.1594 26.4788 17.5648 28.7125 17.5648C33.2431 17.5648 34.5512 20.375 34.5512 23.3772L34.5499 28.3716ZM31.065 24.9414C28.538 24.8833 26.1298 25.4224 26.1298 27.5206C26.1298 28.8816 27.032 29.5065 28.1631 29.5065C29.5837 29.5065 30.6307 28.5963 30.95 27.6052C31.0282 27.3574 31.0674 27.0995 31.0663 26.8402V24.9414H31.065ZM37.0163 21.9897C37.0163 20.4003 36.9865 19.0696 36.9025 17.8791H40.0345L40.2077 19.9521H40.2956C40.9045 18.8727 42.444 17.566 44.7953 17.566C47.2642 17.566 49.8171 19.1252 49.8171 23.4946V31.6868H46.2469V23.891C46.2469 21.9064 45.4907 20.399 43.5466 20.399C42.126 20.399 41.1358 21.3926 40.7597 22.443C40.6434 22.7535 40.6149 23.1803 40.6149 23.5741V31.6856H37.015L37.0163 21.9897ZM65.3001 12.3318V27.8034C65.3001 29.2212 65.3596 30.7551 65.4165 31.6881H62.225L62.0789 29.5065H62.0195C61.1793 31.0366 59.4639 31.9999 57.4048 31.9999C54.0362 31.9999 51.367 29.1934 51.367 24.9427C51.3359 20.3195 54.296 17.5673 57.6956 17.5673C59.6397 17.5673 61.0332 18.3614 61.6717 19.3865H61.7325V12.3331H65.3014V12.3318H65.3001ZM61.7312 23.6347C61.7312 23.3532 61.7028 23.0123 61.6433 22.727C61.324 21.3686 60.1943 20.2614 58.5669 20.2614C56.2737 20.2614 54.994 22.2473 54.994 24.8265C54.994 27.3477 56.2725 29.1922 58.5384 29.1922C59.9875 29.1922 61.2659 28.2264 61.6136 26.724C61.7015 26.4135 61.7325 26.0713 61.7325 25.7039V23.6347H61.7312ZM67.8259 31.6881V17.8791H71.4285V31.6881H67.8259ZM73.9517 22.3319C73.9517 20.4609 73.9245 19.1264 73.8379 17.8804H76.9441L77.0578 20.5152H77.1755C77.8722 18.5596 79.5254 17.8804 81.0391 17.8804C81.3868 17.8804 81.5885 17.8223 81.878 17.8804V20.9444C81.5354 20.8704 81.1857 20.8323 80.8349 20.8308C79.1183 20.8308 77.9575 21.9089 77.6395 23.4656C77.5692 23.8219 77.5307 24.1834 77.5245 24.5463V31.6893H73.9517V22.3319ZM83.5352 31.6881V17.8791H87.1325V31.6881H83.5352Z" fill="#0D2B5B"/>
<path d="M109.541 3.27483C107.758 1.28895 105.863 2.18784 104.357 2.91881C103.724 3.22433 99.152 5.7556 99.152 5.7556C96.6469 6.76431 94.6963 5.66344 93.9311 4.73678C93.8579 4.6489 93.7918 4.55562 93.7333 4.45777L93.5549 4.15604C93.2534 3.64675 92.9184 3.15714 92.5519 2.6903C92.3294 2.40734 92.0885 2.13871 91.8306 1.8861C90.1166 0.195648 87.3775 -0.987293 82.799 1.16144C80.6313 2.38857 73.5697 6.32876 73.5697 6.32876C70.9159 7.39555 68.8865 6.09646 68.2273 5.14329C68.1976 5.10761 68.1716 5.06912 68.1497 5.02841L68.0631 4.88449L67.6159 4.16993C67.414 3.85691 67.1975 3.55317 66.967 3.25968C66.7423 2.97851 66.5011 2.71041 66.2444 2.45674C64.542 0.776387 61.8172 -0.404028 57.2788 1.70431C54.5345 3.23443 48.1515 6.7984 48.1515 6.7984L48.149 6.80093L43.4774 9.40794L45.8946 12.3066C46.9119 13.2534 48.8237 14.8063 51.7812 13.4971C51.7812 13.4971 59.9441 8.88023 59.9765 8.86634C66.9553 5.12562 70.3989 8.69969 71.9216 11.082C71.9746 11.1565 72.0172 11.2373 72.0651 11.3092L72.0677 11.313C72.087 11.3421 72.0987 11.3686 72.1155 11.3963L72.2874 11.6716C73.0294 12.7699 74.1992 13.4794 75.5939 13.4466C76.363 13.4315 76.8853 13.1865 77.6453 12.7737L85.5433 8.29949L85.5601 8.29191C92.6268 4.50574 96.1285 8.31337 97.6241 10.6957C97.7404 10.9015 97.8723 11.0984 98.008 11.2815C98.7487 12.2624 99.7699 12.905 101.068 12.8734C101.925 12.857 102.885 12.3546 103.029 12.2624L112.497 6.92465C112.5 6.92717 111.533 5.49931 109.541 3.27483Z" fill="#FDD213"/>
</g>
<defs>
<clipPath id="clip0_1054_5583">
<rect width="112.514" height="32" fill="white"/>
</clipPath>
</defs>
</svg>
