<svg width="28" height="32" viewBox="0 0 28 32" fill="none" xmlns="http://www.w3.org/2000/svg">
<g clip-path="url(#clip0_1054_5580)">
<path d="M23.0111 2.49101C21.5347 0.808153 18.8658 0.0866699 15.4514 0.0866699H5.542C5.20418 0.0866824 4.87745 0.207204 4.62054 0.426566C4.36363 0.645928 4.19341 0.949742 4.14046 1.28339L0.0143694 27.4521C-0.0676439 27.9681 0.331932 28.4354 0.854952 28.4354H6.97267L8.5091 18.6901L8.46142 18.9953C8.57087 18.3064 9.16001 17.7984 9.85765 17.7984H12.7648C18.4758 17.7984 22.9477 15.4787 24.2539 8.76831C24.2927 8.56985 24.3263 8.37668 24.3554 8.18797C24.1905 8.10066 24.1905 8.10066 24.3554 8.18797C24.7443 5.70776 24.3527 4.01949 23.0111 2.49101Z" fill="#27346A"/>
<path d="M10.85 7.29451C11.0172 7.21487 11.2001 7.1736 11.3854 7.17372H19.1542C20.0741 7.17372 20.9322 7.23358 21.7163 7.35978C21.9357 7.39477 22.154 7.43653 22.3708 7.48503C22.6781 7.55284 22.9819 7.63584 23.281 7.73372C23.6665 7.86246 24.0255 8.01239 24.3555 8.18797C24.7443 5.7068 24.3527 4.01949 23.0111 2.49101C21.5338 0.808153 18.8658 0.0866699 15.4514 0.0866699H5.54115C4.8434 0.0866699 4.24981 0.594643 4.14046 1.28339L0.01437 27.4511C-0.0676433 27.968 0.331933 28.4346 0.854105 28.4346H6.97268L10.1603 8.2206C10.1916 8.02192 10.2708 7.83382 10.3909 7.6725C10.5111 7.51117 10.6686 7.38146 10.85 7.29451Z" fill="#27346A"/>
<path d="M24.2539 8.76809C22.9476 15.4775 18.4759 17.7981 12.7647 17.7981H9.85677C9.15913 17.7981 8.56988 18.3062 8.46148 18.9951L6.55007 31.1121C6.47865 31.5637 6.82789 31.973 7.28479 31.973H12.4419C12.7373 31.9729 13.023 31.8674 13.2476 31.6755C13.4722 31.4836 13.6209 31.2179 13.6671 30.9261L13.7173 30.6633L14.6893 24.5032L14.7519 24.1627C14.7981 23.871 14.9468 23.6052 15.1714 23.4133C15.396 23.2214 15.6816 23.116 15.977 23.1159H16.7488C21.7446 23.1159 25.6563 21.0863 26.7994 15.2165C27.2765 12.7635 27.0296 10.7155 25.7674 9.27702C25.3846 8.84131 24.9092 8.48147 24.3553 8.18774C24.3253 8.37741 24.2928 8.56962 24.2539 8.76809Z" fill="#2790C3"/>
<path d="M22.9883 7.64313C22.7846 7.58365 22.579 7.531 22.3718 7.48525C22.1549 7.43755 21.9366 7.39607 21.7173 7.36085C20.9323 7.2338 20.0749 7.17383 19.1541 7.17383H11.3863C11.2009 7.17341 11.0178 7.21504 10.8508 7.29558C10.6693 7.38226 10.5115 7.5119 10.3913 7.67327C10.2711 7.83464 10.1921 8.02287 10.161 8.22167L8.50996 18.6903L8.46228 18.9955C8.57089 18.3066 9.16003 17.7986 9.85778 17.7986H12.7658C18.4768 17.7986 22.9485 15.4789 24.2548 8.76853C24.2937 8.57007 24.3263 8.37775 24.3563 8.18819C24.0255 8.01357 23.6675 7.86268 23.2819 7.73478C23.1846 7.70253 23.0867 7.67197 22.9884 7.64313" fill="#1F264F"/>
</g>
<defs>
<clipPath id="clip0_1054_5580">
<rect width="27.1258" height="32" fill="white"/>
</clipPath>
</defs>
</svg>
